<svg height='300px' width='300px' fill="#dd0000"
  xmlns="http://www.w3.org/2000/svg"
  xmlns:xlink="http://www.w3.org/1999/xlink" version="1.1" x="0px" y="0px" viewBox="0 0 53 53" style="enable-background:new 0 0 53 53;" xml:space="preserve">
  <g>
    <path d="M26.49023,45.3386c0.09003,0.13995,0.19,0.27997,0.30005,0.40997c-0.39001,0.02002-0.79004,0-1.19-0.04999   c-3.04004-0.41003-5.57001-2.83002-6.08002-5.87c-0.84998-5.01001,3.45001-9.29004,8.45001-8.36005   c1,0.18005,1.92999,0.59003,2.73999,1.15002l-4.39001,8.78998C25.68023,42.66855,25.75024,44.13858,26.49023,45.3386z"></path>
    <path d="M36.43023,22.0286c-0.46997,0.35999-0.84998,0.81995-1.12,1.37l-2.08997,4.17999c-5.5-3.37-12.63-2.25-16.87,3.23999   c-0.92999,1.21002-2.08002,1.88-3.62,1.5c-2.30005-0.54999-3.14001-3.19-1.63-5.21002   c4.81-6.46997,12.54999-8.79999,19.51996-7.29999C32.76025,20.26859,34.68023,21.00858,36.43023,22.0286z"></path>
    <path d="M49.13266,22.52623c-0.81758,0.53953-1.766,0.62137-2.77978,0.17984c-0.53963-0.22895-1.03016-0.6541-1.43894-1.07926   c-6.65509-6.88393-15.01069-9.43476-24.98519-7.17825c-4.56204,1.03015-8.42098,3.79357-11.64228,7.19461   c-1.73326,1.83136-4.12052,1.76599-5.33052-0.19621c0-0.01637-0.01637-0.01637-0.01637-0.01637   c-0.605-0.99742-0.57236-2.30552,0.03264-3.28657c1.16099-1.88047,2.92699-3.18857,4.66025-4.49667   c12.73781-9.72918,30.78996-8.22487,41.76178,3.45015c0.0981,0.09811,0.17984,0.19621,0.26168,0.29432   C50.89856,18.97788,50.80045,21.39797,49.13266,22.52623z"></path>
    <path d="M50.22546,42.07291l-9.01263-18.00928c-0.9397-1.87781-3.61987-1.87683-4.55829,0.00159l-8.99658,18.00934   c-0.84631,1.69421,0.38568,3.68689,2.27954,3.68689h18.00922C49.84136,45.76145,51.07336,43.76725,50.22546,42.07291z    M37.7832,30.76932c0-0.12964,0.04108-0.23328,0.12384-0.30963c0.08209-0.07703,0.18292-0.11517,0.30096-0.11517h1.4682   c0.1181,0,0.2182,0.04102,0.30096,0.12384c0.08282,0.08276,0.1239,0.18286,0.1239,0.30096v8.08691   c0,0.11804-0.04108,0.21814-0.1239,0.30096c-0.08276,0.08209-0.18286,0.12384-0.30096,0.12384H38.208   c-0.11804,0-0.21887-0.04175-0.30096-0.12384c-0.08276-0.08282-0.12384-0.18292-0.12384-0.30096V30.76932z M40.20763,42.30667   c0,0.1181-0.04181,0.21893-0.1239,0.30103c-0.08276,0.08276-0.18933,0.12384-0.31897,0.12384h-1.66333   c-0.11804,0-0.21814-0.04108-0.30096-0.12384c-0.08209-0.08209-0.12384-0.18292-0.12384-0.30103V40.6254   c0-0.12964,0.04175-0.2326,0.12384-0.30963c0.08282-0.07635,0.18292-0.1145,0.30096-0.1145h1.66333   c0.12964,0,0.23621,0.04102,0.31897,0.12384c0.08209,0.08209,0.1239,0.18292,0.1239,0.30029V42.30667z"></path>
  </g>
</svg>