<svg height='300px' width='300px' fill="#44CC00"
  xmlns="http://www.w3.org/2000/svg"
  xmlns:xlink="http://www.w3.org/1999/xlink" version="1.1" x="0px" y="0px" viewBox="0 0 100 100" enable-background="new 0 0 100 100" xml:space="preserve">
  <path d="M50,16.3c-17.1,0-33.1,6.6-45.2,18.7c-1.4,1.4-1.4,3.9,0,5.3l42.5,42.5c1.4,1.4,3.9,1.4,5.3,0l42.5-42.5  c1.4-1.4,1.4-3.9,0-5.3C83.1,22.9,67.1,16.3,50,16.3z M50,78.3l-8.9-8.9c2.5-2.1,5.6-3.2,8.9-3.2s6.4,1.1,8.9,3.2L50,78.3z   M60.6,67.7c-3-2.5-6.7-3.9-10.6-3.9s-7.7,1.4-10.6,3.9l-8.9-8.9c5.3-4.9,12.2-7.6,19.5-7.6s14.2,2.7,19.5,7.6L60.6,67.7z   M71.3,57.1C65.5,51.7,58,48.7,50,48.7s-15.5,2.9-21.3,8.3l-8.8-8.8c8.2-7.7,18.8-12,30.1-12s21.9,4.2,30.1,12L71.3,57.1z   M81.9,46.5C73.2,38.3,62,33.7,50,33.7s-23.2,4.5-31.9,12.7l-8.9-8.9c11-10.6,25.4-16.4,40.7-16.4s29.7,5.8,40.7,16.4L81.9,46.5z"></path>
  <path d="M90.7,64.5L77.5,77.7l-3.2-3.2c-1-1-2.6-1-3.5,0c-1,1-1,2.6,0,3.5l5,5c1,1,2.6,1,3.5,0l15-15c1-1,1-2.6,0-3.5  C93.3,63.5,91.7,63.5,90.7,64.5z"></path>
</svg>